# xmcd
#
# Track frame offsets: 
#        182
#        17810
#        38770
#        59132
#        74290
#        88120
#        101460
#        131820
#        157507
#        177927
#        201040
#        217157
#
# Disc length: 3059 seconds
#
# Revision: 5
# Processed by: cddbd v1.5.2PL0 Copyright (c) Steve Scherf et al.
# Submitted via: ExactAudioCopy v1.3
#
DISCID=a80bf10c
DTITLE=Stevie Ray Vaughan and Double Trouble - The Last Child
DYEAR=1990
DGENRE=Bluesrock
TTITLE0=Testify
TTITLE1=So Excited
TTITLE2=Pride and Joy
TTITLE3=Mary Had A Little Lamb
TTITLE4=Tell Me
TTITLE5=Love Struck Baby
TTITLE6=Voodoo Chile (Slight Return)
TTITLE7=Little Wing
TTITLE8=Third Stone From The Sun
TTITLE9=You'll Be Mine
TTITLE10=Rude Mood
TTITLE11=Wham!
EXTD=
EXTT0=
EXTT1=
EXTT2=
EXTT3=
EXTT4=
EXTT5=
EXTT6=
EXTT7=
EXTT8=
EXTT9=
EXTT10=
EXTT11=
PLAYORDER=
